<svg width="874" height="560" viewBox="0 0 874 560" version="1.1" xmlns="http://www.w3.org/2000/svg" xmlns:xlink="http://www.w3.org/1999/xlink">
<title>Group</title>
<desc>Created using Figma</desc>
<g id="Canvas" transform="translate(1449 476)">
<g id="Group">
<g id="Component">
<g id="Vector 2">
<use xlink:href="#path0_fill" transform="matrix(0.998398 -0.0565863 0.0565863 0.998398 -873.013 -459.934)" fill="#C4C4C4"/>
</g>
<g id="Rectangle 3">
<use xlink:href="#path1_fill" transform="matrix(0.999778 -0.0210618 0.0210618 0.999778 -801.345 -383.586)" fill="#C4C4C4"/>
</g>
<g id="Rectangle 3">
<use xlink:href="#path1_fill" transform="translate(-748 -384)" fill="#C4C4C4"/>
</g>
<g id="Rectangle 3">
<use xlink:href="#path1_fill" transform="matrix(0.999896 0.0144236 -0.0144236 0.999896 -694.02 -384.231)" fill="#C4C4C4"/>
</g>
<g id="Rectangle 3">
<use xlink:href="#path1_fill" transform="matrix(0.999778 -0.0210618 0.0210618 0.999778 -800.608 -348.593)" fill="#C4C4C4"/>
</g>
<g id="Rectangle 3">
<use xlink:href="#path1_fill" transform="translate(-748 -349)" fill="#C4C4C4"/>
</g>
<g id="Rectangle 3">
<use xlink:href="#path1_fill" transform="matrix(0.999896 0.0144236 -0.0144236 0.999896 -694.525 -349.235)" fill="#C4C4C4"/>
</g>
<g id="Rectangle 3">
<use xlink:href="#path1_fill" transform="matrix(0.999778 -0.0210618 0.0210618 0.999778 -799.829 -311.602)" fill="#C4C4C4"/>
</g>
<g id="Rectangle 3">
<use xlink:href="#path1_fill" transform="translate(-748 -312)" fill="#C4C4C4"/>
</g>
<g id="Rectangle 3">
<use xlink:href="#path1_fill" transform="matrix(0.999896 0.0144236 -0.0144236 0.999896 -695.058 -312.238)" fill="#C4C4C4"/>
</g>
<g id="Rectangle 3">
<use xlink:href="#path1_fill" transform="matrix(0.999778 -0.0210618 0.0210618 0.999778 -800.092 -276.588)" fill="#C4C4C4"/>
</g>
<g id="Rectangle 3">
<use xlink:href="#path1_fill" transform="translate(-749 -277)" fill="#C4C4C4"/>
</g>
<g id="Rectangle 3">
<use xlink:href="#path1_fill" transform="matrix(0.999896 0.0144236 -0.0144236 0.999896 -696.563 -277.257)" fill="#C4C4C4"/>
</g>
<g id="Rectangle 3">
<use xlink:href="#path1_fill" transform="matrix(0.999778 -0.0210618 0.0210618 0.999778 -799.354 -241.596)" fill="#C4C4C4"/>
</g>
<g id="Rectangle 3">
<use xlink:href="#path1_fill" transform="translate(-749 -242)" fill="#C4C4C4"/>
</g>
<g id="Rectangle 3">
<use xlink:href="#path1_fill" transform="matrix(0.999896 0.0144236 -0.0144236 0.999896 -697.068 -242.26)" fill="#C4C4C4"/>
</g>
<g id="Rectangle 3">
<use xlink:href="#path1_fill" transform="matrix(0.999778 -0.0210618 0.0210618 0.999778 -798.575 -204.604)" fill="#C4C4C4"/>
</g>
<g id="Rectangle 3">
<use xlink:href="#path1_fill" transform="translate(-749 -205)" fill="#C4C4C4"/>
</g>
<g id="Rectangle 3">
<use xlink:href="#path1_fill" transform="matrix(0.999896 0.0144236 -0.0144236 0.999896 -697.601 -205.264)" fill="#C4C4C4"/>
</g>
<g id="Rectangle 3">
<use xlink:href="#path1_fill" transform="matrix(0.999778 -0.0210618 0.0210618 0.999778 -796.796 -167.634)" fill="#C4C4C4"/>
</g>
<g id="Rectangle 3">
<use xlink:href="#path1_fill" transform="translate(-748 -168)" fill="#C4C4C4"/>
</g>
<g id="Rectangle 3">
<use xlink:href="#path1_fill" transform="matrix(0.999896 0.0144236 -0.0144236 0.999896 -697.135 -168.253)" fill="#C4C4C4"/>
</g>
<g id="Rectangle 3">
<use xlink:href="#path1_fill" transform="matrix(0.999778 -0.0210618 0.0210618 0.999778 -796.059 -132.641)" fill="#C4C4C4"/>
</g>
<g id="Rectangle 3">
<use xlink:href="#path1_fill" transform="translate(-748 -133)" fill="#C4C4C4"/>
</g>
<g id="Rectangle 3">
<use xlink:href="#path1_fill" transform="matrix(0.999896 0.0144236 -0.0144236 0.999896 -697.64 -133.257)" fill="#C4C4C4"/>
</g>
<g id="Rectangle 3">
<use xlink:href="#path1_fill" transform="matrix(0.999778 -0.0210618 0.0210618 0.999778 -795.28 -95.6495)" fill="#C4C4C4"/>
</g>
<g id="Rectangle 3">
<use xlink:href="#path1_fill" transform="translate(-748 -96)" fill="#C4C4C4"/>
</g>
<g id="Rectangle 3">
<use xlink:href="#path1_fill" transform="matrix(0.999896 0.0144236 -0.0144236 0.999896 -698.174 -96.2609)" fill="#C4C4C4"/>
</g>
<g id="Rectangle 3">
<use xlink:href="#path1_fill" transform="matrix(0.999778 -0.0210618 0.0210618 0.999778 -795.542 -60.6362)" fill="#C4C4C4"/>
</g>
<g id="Rectangle 3">
<use xlink:href="#path1_fill" transform="translate(-749 -61)" fill="#C4C4C4"/>
</g>
<g id="Rectangle 3">
<use xlink:href="#path1_fill" transform="matrix(0.999896 0.0144236 -0.0144236 0.999896 -699.678 -61.279)" fill="#C4C4C4"/>
</g>
<g id="Rectangle 3">
<use xlink:href="#path1_fill" transform="matrix(0.999778 -0.0210618 0.0210618 0.999778 -794.805 -25.644)" fill="#C4C4C4"/>
</g>
<g id="Rectangle 3">
<use xlink:href="#path1_fill" transform="translate(-749 -26)" fill="#C4C4C4"/>
</g>
<g id="Rectangle 3">
<use xlink:href="#path1_fill" transform="matrix(0.999896 0.0144236 -0.0144236 0.999896 -700.183 -26.2826)" fill="#C4C4C4"/>
</g>
<g id="Rectangle 3">
<use xlink:href="#path1_fill" transform="matrix(0.999778 -0.0210618 0.0210618 0.999778 -794.026 11.3478)" fill="#C4C4C4"/>
</g>
<g id="Rectangle 3">
<use xlink:href="#path1_fill" transform="translate(-749 11)" fill="#C4C4C4"/>
</g>
<g id="Rectangle 3">
<use xlink:href="#path1_fill" transform="matrix(0.999896 0.0144236 -0.0144236 0.999896 -700.717 10.7136)" fill="#C4C4C4"/>
</g>
</g>
<g id="Vector 3">
<use xlink:href="#path2_fill" transform="translate(-1257 -272)" fill="#C4C4C4"/>
</g>
<g id="Vector 3">
<use xlink:href="#path3_fill" transform="translate(-1024 -196)" fill="#C4C4C4"/>
</g>
<g id="Vector 3">
<use xlink:href="#path3_fill" transform="translate(-1449 -196)" fill="#C4C4C4"/>
</g>
</g>
</g>
<defs>
<path id="path0_fill" d="M 266.337 25.4192C 271.837 39.4192 228.337 528.919 221.337 543.919C 213.337 543.919 189.337 543.919 187.837 536.919C 186.337 529.919 236.337 59.9192 229.337 48.4192C 222.337 36.9192 56.8371 36.9192 49.8371 41.4192C 42.8371 45.9192 40.3371 534.919 35.8371 536.919C 31.3371 538.919 -10.1629 533.419 2.33713 525.419C 14.8371 517.419 13.8371 11.4192 23.3371 2.41923C 32.8371 -6.58077 260.837 11.4192 266.337 25.4192Z"/>
<path id="path1_fill" d="M 0 4C 0 1.79086 1.79086 0 4 0L 32 0C 34.2091 0 36 1.79086 36 4L 36 14C 36 16.2091 34.2091 18 32 18L 4 18C 1.79086 18 0 16.2091 0 14L 0 4Z"/>
<path id="path2_fill" d="M 161.778 33.3542C 159.213 22.0138 150.805 1.06734 124.309 0C 96.476 0 81.9347 16.4548 78.1433 24.6821C 65.0964 18.456 35.724 11.8741 22.6102 35.3555C 9.49634 58.8369 21.1605 76.9371 28.6319 83.052C 18.1497 87.0546 -2.21245 100.33 0.196217 121.409C 2.60488 142.489 23.7253 157.988 33.9844 163.102C 45.2249 169.239 46.0277 189.674 45.0241 199.125C 38.6679 219.804 18.2612 313.863 18.2612 331.541C 18.2612 349.219 32.3117 348.218 38.6679 339.88C 45.0241 331.541 46.6968 239.817 63.0891 200.459C 71.8218 179.492 60.0783 158.433 49.3731 153.096C 38.6679 147.759 15.5849 132.083 15.5849 121.409C 15.5849 112.871 35.4341 92.28 46.6968 83.052C 41.0097 73.3793 33.583 52.166 38.6679 44.6947C 43.7529 37.2233 69.7799 38.2462 80.8196 41.3592C 87.7334 30.4635 103.97 13.275 124.309 18.3448C 139.832 18.3448 151.965 39.9139 156.09 50.6984C 160.885 52.6997 176.832 44.6947 188.206 64.7072C 195.883 78.214 184.303 92.9471 168.468 103.065C 175.382 112.515 182.519 134.684 182.519 147.759C 182.519 164.103 147.032 164.8 136.018 171.774C 111.263 187.451 117.619 197.865 117.619 212.8C 117.619 227.476 111.263 349.219 117.284 353.555C 123.306 357.891 145.051 352.221 136.018 339.88C 126.986 327.539 136.018 202.127 136.018 192.12C 136.018 184.115 149.4 182.781 156.09 183.115C 162.001 182.336 177.969 177.244 194.562 163.102C 211.155 148.96 197.239 119.631 188.206 106.734C 198.577 100.841 214.233 82.1848 207.275 62.706C 200.316 43.2271 174.044 35.0219 161.778 33.3542Z"/>
<path id="path3_fill" d="M 119.979 24.7103C 118.076 16.3088 111.841 0.79073 92.1912 0C 71.5492 0 60.765 12.1904 57.9532 18.2856C 48.2772 13.673 26.4939 8.79687 16.7683 26.1929C 7.04274 43.589 15.6932 56.9985 21.2342 61.5287C 13.4603 64.4939 -1.64081 74.3286 0.14552 89.9456C 1.93185 105.562 17.5953 117.045 25.2038 120.833C 33.54 125.38 34.1354 140.519 33.3911 147.521C 28.6772 162.841 13.543 232.524 13.543 245.621C 13.543 258.717 23.9632 257.976 28.6772 251.798C 33.3911 245.621 34.6316 177.667 46.7886 148.509C 53.2649 132.976 44.5557 117.374 36.6164 113.42C 28.6772 109.467 11.5582 97.8529 11.5582 89.9456C 11.5582 83.6197 26.2789 68.3652 34.6316 61.5287C 30.4139 54.3627 24.906 38.6469 28.6772 33.1118C 32.4483 27.5767 51.7506 28.3345 59.938 30.6408C 65.0655 22.5688 77.1067 9.83471 92.1912 13.5907C 103.703 13.5907 112.701 29.57 115.761 37.5597C 119.317 39.0423 131.143 33.1118 139.579 47.938C 145.272 57.9444 136.684 68.8594 124.941 76.3549C 130.068 83.3561 135.361 99.7803 135.361 109.467C 135.361 121.575 109.043 122.091 100.875 127.258C 82.5153 138.872 87.2291 146.587 87.2291 157.652C 87.2291 168.524 82.5153 258.717 86.9811 261.929C 91.4469 265.142 107.574 260.941 100.875 251.798C 94.176 242.655 100.875 149.745 100.875 142.331C 100.875 136.401 110.799 135.413 115.761 135.66C 120.144 135.083 131.987 131.311 144.293 120.833C 156.598 110.356 146.277 88.6277 139.579 79.073C 147.27 74.7075 158.881 60.8862 153.72 46.4554C 148.56 32.0246 129.076 25.9458 119.979 24.7103Z"/>
</defs>
</svg>
